<svg width="1183" height="172" viewBox="0 0 1183 172" fill="none" xmlns="http://www.w3.org/2000/svg">
<path d="M847 139.133H824.033L814.433 114.5H774.433L764.8 139.133H743.333L784.433 40.4667H806.633L847 139.133ZM808.333 98.0333L794.633 63.2333L780.933 98.0333H808.333ZM664.5 139.133H686.5V57.8667H719.667V40.8667H631.533V57.8667H664.5V139.133ZM536.967 139.133H601.2V122.1H559V40.8333H536.967V139.133ZM427.567 57.8667H474.767V40.8667H405.533V139.133H476.233V122.1H427.567V96.5667H469.233V79.5333H427.567V57.8667ZM261.533 139.133H296.133C331.867 139.133 353.133 120.633 353.133 90.0667C353.133 59.5333 331.867 41.0333 296.133 41.0333H261.533V139.133ZM283.367 57.8667H296.133C319.267 57.8667 330.933 69.3333 330.933 89.8667C330.933 110.433 319.467 121.9 296.133 121.9H283.367V57.8667ZM207.467 129.7C208.793 129.7 210.065 130.227 211.002 131.164C211.94 132.102 212.467 133.374 212.467 134.7C212.467 136.026 211.94 137.298 211.002 138.236C210.065 139.173 208.793 139.7 207.467 139.7C206.81 139.7 206.16 139.571 205.553 139.319C204.947 139.068 204.395 138.7 203.931 138.236C203.467 137.771 203.099 137.22 202.847 136.613C202.596 136.007 202.467 135.357 202.467 134.7C202.467 134.043 202.596 133.393 202.847 132.787C203.099 132.18 203.467 131.629 203.931 131.164C204.395 130.7 204.947 130.332 205.553 130.081C206.16 129.829 206.81 129.7 207.467 129.7ZM207.467 138.933C208.039 138.951 208.608 138.855 209.143 138.652C209.678 138.448 210.167 138.141 210.582 137.747C210.997 137.354 211.33 136.882 211.562 136.359C211.794 135.836 211.92 135.272 211.933 134.7C211.933 132.267 210.067 130.433 207.467 130.433C206.907 130.429 206.351 130.536 205.834 130.75C205.316 130.963 204.846 131.277 204.451 131.675C204.057 132.073 203.746 132.545 203.537 133.064C203.328 133.584 203.224 134.14 203.233 134.7C203.233 137.1 205.067 138.933 207.467 138.933ZM206.367 137.633H205.667V131.733H207.9C209.167 131.733 209.733 132.267 209.733 133.4C209.733 134.5 209 134.867 208.267 135.067L210.1 137.633H209.167L207.5 135.067H206.4L206.367 137.633ZM206.367 134.3H207.3C208.033 134.3 208.967 134.3 208.967 133.4C208.967 132.667 208.233 132.467 207.667 132.467H206.367V134.3ZM47 152.3H201.2L124.2 119.7L47 152.3ZM52.7333 139.133L124.2 104.7L195.633 139.133L124.2 29L52.7333 139.133Z" fill="white"/>
<path d="M908.265 140C899.807 140 893.258 138.236 888.618 134.707C884.026 131.131 881.247 125.645 880.28 118.25C880.087 116.22 880.522 114.649 881.585 113.537C882.648 112.426 884.195 111.87 886.225 111.87C889.947 111.87 892.025 113.9 892.46 117.96C893.137 121.73 894.659 124.316 897.028 125.717C899.396 127.119 903.142 127.82 908.265 127.82H924.795C931.03 127.82 935.259 126.708 937.483 124.485C939.754 122.213 940.89 118.008 940.89 111.87C940.89 105.78 939.754 101.599 937.483 99.3275C935.259 97.0558 931.03 95.92 924.795 95.92H913.63C909.57 95.92 907.54 93.89 907.54 89.83C907.54 85.77 909.57 83.74 913.63 83.74H930.305C933.35 83.74 935.477 82.3867 936.685 79.68C937.942 76.925 938.57 73.2033 938.57 68.515C938.57 62.7633 937.531 58.8967 935.453 56.915C933.423 54.885 929.58 53.87 923.925 53.87H909.86C905.317 53.87 901.958 54.4742 899.783 55.6825C897.608 56.8908 896.23 59.1383 895.65 62.425C895.07 66.3883 892.943 68.37 889.27 68.37C887.24 68.37 885.693 67.8383 884.63 66.775C883.567 65.6633 883.18 64.0683 883.47 61.99C884.437 55.175 887.095 50.1 891.445 46.765C895.843 43.3817 901.982 41.69 909.86 41.69H923.925C933.012 41.69 939.754 43.8892 944.153 48.2875C948.551 52.6858 950.75 59.4283 950.75 68.515C950.75 77.4567 948.237 83.7883 943.21 87.51C946.545 89.685 949.01 92.7783 950.605 96.79C952.248 100.802 953.07 105.828 953.07 111.87C953.07 121.44 950.774 128.521 946.183 133.112C941.591 137.704 934.462 140 924.795 140H908.265ZM1006.91 140C997.29 140 990.161 137.704 985.521 133.112C980.929 128.521 978.633 121.44 978.633 111.87V68.515C978.633 59.4283 980.832 52.6858 985.231 48.2875C989.677 43.8892 996.42 41.69 1005.46 41.69H1023.44C1031.36 41.69 1037.5 43.3817 1041.85 46.765C1046.25 50.1 1048.91 55.175 1049.83 61.99C1050.12 64.0683 1049.73 65.6633 1048.67 66.775C1047.6 67.8383 1046.06 68.37 1044.03 68.37C1040.35 68.37 1038.23 66.3883 1037.65 62.425C1037.07 59.1383 1035.69 56.8908 1033.52 55.6825C1031.39 54.4742 1028.03 53.87 1023.44 53.87H1005.46C999.755 53.87 995.888 54.9092 993.858 56.9875C991.828 59.0175 990.813 62.86 990.813 68.515V80.55C994.583 76.0067 999.948 73.735 1006.91 73.735H1021.99C1031.56 73.735 1038.66 76.055 1043.3 80.695C1047.94 85.335 1050.26 92.44 1050.26 102.01V111.725C1050.26 121.343 1047.94 128.472 1043.3 133.112C1038.66 137.704 1031.56 140 1021.99 140H1006.91ZM1006.91 127.82H1021.99C1028.22 127.82 1032.45 126.684 1034.68 124.412C1036.95 122.092 1038.08 117.863 1038.08 111.725V102.01C1038.08 95.775 1036.95 91.5458 1034.68 89.3225C1032.4 87.0508 1028.17 85.915 1021.99 85.915H1006.91C1000.67 85.915 996.42 87.0508 994.148 89.3225C991.925 91.5942 990.813 95.775 990.813 101.865V111.87C990.813 118.008 991.925 122.213 994.148 124.485C996.42 126.708 1000.67 127.82 1006.91 127.82ZM1119.13 41.69C1128.79 41.69 1135.92 43.9858 1140.51 48.5775C1145.11 53.1692 1147.4 60.25 1147.4 69.82V113.175C1147.4 122.213 1145.2 128.956 1140.8 133.402C1136.41 137.801 1129.66 140 1120.58 140H1102.6C1094.72 140 1088.58 138.332 1084.18 134.997C1079.83 131.614 1077.17 126.515 1076.21 119.7C1075.92 117.573 1076.3 115.978 1077.37 114.915C1078.43 113.852 1079.98 113.32 1082.01 113.32C1085.68 113.32 1087.81 115.302 1088.39 119.265C1088.97 122.503 1090.34 124.751 1092.52 126.007C1094.69 127.216 1098.05 127.82 1102.6 127.82H1120.58C1126.33 127.82 1130.2 126.805 1132.18 124.775C1134.21 122.697 1135.22 118.83 1135.22 113.175V101.14C1131.45 105.683 1126.09 107.955 1119.13 107.955H1104.05C1094.48 107.955 1087.37 105.635 1082.73 100.995C1078.09 96.355 1075.77 89.25 1075.77 79.68V69.965C1075.77 60.2983 1078.09 53.1692 1082.73 48.5775C1087.37 43.9858 1094.48 41.69 1104.05 41.69H1119.13ZM1119.13 53.87H1104.05C1097.81 53.87 1093.56 55.0058 1091.29 57.2775C1089.06 59.5492 1087.95 63.7783 1087.95 69.965V79.68C1087.95 85.915 1089.09 90.1683 1091.36 92.44C1093.68 94.6633 1097.91 95.775 1104.05 95.775H1119.13C1125.36 95.775 1129.59 94.6392 1131.81 92.3675C1134.09 90.0958 1135.22 85.915 1135.22 79.825V69.82C1135.22 63.6333 1134.09 59.4283 1131.81 57.205C1129.59 54.9817 1125.36 53.87 1119.13 53.87Z" fill="#E3E3E3"/>
</svg>
