<svg width="188" height="140" viewBox="0 0 188 140" fill="none" xmlns="http://www.w3.org/2000/svg">
<path d="M181.816 114.339C183.315 114.339 184.752 114.937 185.812 116.002C186.871 117.066 187.467 118.51 187.467 120.016C187.467 121.522 186.871 122.966 185.812 124.031C184.752 125.095 183.315 125.693 181.816 125.693C181.074 125.693 180.339 125.547 179.654 125.261C178.968 124.976 178.345 124.558 177.82 124.031C177.296 123.503 176.88 122.878 176.596 122.189C176.312 121.5 176.165 120.762 176.165 120.016C176.165 119.271 176.312 118.532 176.596 117.844C176.88 117.155 177.296 116.529 177.82 116.002C178.345 115.475 178.968 115.056 179.654 114.771C180.339 114.486 181.074 114.339 181.816 114.339ZM181.816 124.823C182.462 124.843 183.106 124.734 183.711 124.503C184.315 124.272 184.868 123.923 185.337 123.476C185.806 123.029 186.183 122.494 186.445 121.9C186.707 121.306 186.849 120.666 186.864 120.016C186.864 117.253 184.754 115.172 181.816 115.172C181.183 115.167 180.556 115.289 179.97 115.531C179.385 115.773 178.854 116.13 178.408 116.582C177.963 117.033 177.611 117.569 177.375 118.159C177.138 118.749 177.022 119.38 177.032 120.016C177.032 122.741 179.104 124.823 181.816 124.823ZM180.573 123.347H179.782V116.648H182.306C183.737 116.648 184.378 117.253 184.378 118.54C184.378 119.789 183.549 120.205 182.72 120.433L184.792 123.347H183.737L181.854 120.433H180.611L180.573 123.347ZM180.573 119.562H181.628C182.457 119.562 183.511 119.562 183.511 118.54C183.511 117.707 182.683 117.48 182.042 117.48H180.573V119.562ZM0.466797 140H174.734L87.7134 102.985L0.466797 140ZM6.94625 125.05L87.7134 85.9529L168.443 125.05L87.7134 0L6.94625 125.05Z" fill="url(#paint0_linear_64_49)"/>
<defs>
<linearGradient id="paint0_linear_64_49" x1="93.9668" y1="0" x2="93.9668" y2="140" gradientUnits="userSpaceOnUse">
<stop stop-color="#C8F31C"/>
<stop offset="1" stop-color="#0BCF29"/>
</linearGradient>
</defs>
</svg>
